HIERARCHY
ROOT hip
{
  OFFSET 0 90.174 2.4664
  CHANNELS 6 Xposition Yposition Zposition Zrotation Xrotation Yrotation
  JOINT abdomen
  {
    OFFSET 0 -1.186 -1.5018
    CHANNELS 6 Xposition Yposition Zposition Zrotation Xrotation Yrotation
    JOINT abdomen2
    {
      OFFSET 0 9.964 0.2134
      CHANNELS 6 Xposition Yposition Zposition Zrotation Xrotation Yrotation
      JOINT chest
      {
        OFFSET 0 13.134 -3.2573
        CHANNELS 6 Xposition Yposition Zposition Zrotation Xrotation Yrotation
        JOINT neck
        {
          OFFSET 0 20.686 -1.6905
          CHANNELS 6 Xposition Yposition Zposition Zrotation Xrotation Yrotation
          JOINT head
          {
            OFFSET 0 7.238 -0.1237
            CHANNELS 6 Xposition Yposition Zposition Zrotation Xrotation Yrotation
            End Site
            {
              OFFSET 0 0 0
            }
          }
        }
        JOINT lCollar
        {
          OFFSET 1.7069 20.075 5.0056
          CHANNELS 6 Xposition Yposition Zposition Zrotation Xrotation Yrotation
          JOINT lShldr
          {
            OFFSET 13.6458 -0.047 -4.849
            CHANNELS 6 Xposition Yposition Zposition Zrotation Xrotation Yrotation
            JOINT lForeArm
            {
              OFFSET 28.3255 -0.9759 2.2888
              CHANNELS 6 Xposition Yposition Zposition Zrotation Xrotation Yrotation
              JOINT lHand
              {
                OFFSET 22.1583 -0.53 10.8316
                CHANNELS 6 Xposition Yposition Zposition Zrotation Xrotation Yrotation
                JOINT lThumb1
                {
                  OFFSET 0.786 0.112 2.5817
                  CHANNELS 6 Xposition Yposition Zposition Zrotation Xrotation Yrotation
                  JOINT lThumb2
                  {
                    OFFSET 0.3601 -0.878 4.2331
                    CHANNELS 6 Xposition Yposition Zposition Zrotation Xrotation Yrotation
                    JOINT lThumb2_End
                    {
                      OFFSET 1.8127 -1.216 2.2227
                      CHANNELS 6 Xposition Yposition Zposition Zrotation Xrotation Yrotation
                      End Site
                      {
                        OFFSET 0.0181 -0.0122 0.0222
                      }
                    }
                  }
                }
                JOINT lCarpal1
                {
                  OFFSET 0.9571 1.114 1.7695
                  CHANNELS 6 Xposition Yposition Zposition Zrotation Xrotation Yrotation
                  JOINT lIndex1
                  {
                    OFFSET 4.1246 0.487 4.1451
                    CHANNELS 6 Xposition Yposition Zposition Zrotation Xrotation Yrotation
                    JOINT lIndex2
                    {
                      OFFSET 3.4052 -1.454 2.7682
                      CHANNELS 6 Xposition Yposition Zposition Zrotation Xrotation Yrotation
                      JOINT lIndex2_End
                      {
                        OFFSET 1.4531 -1.795 1.2713
                        CHANNELS 6 Xposition Yposition Zposition Zrotation Xrotation Yrotation
                        End Site
                        {
                          OFFSET 0.0145 -0.0179 0.0127
                        }
                      }
                    }
                  }
                  JOINT lMid1
                  {
                    OFFSET 5.6954 0.21 2.1184
                    CHANNELS 6 Xposition Yposition Zposition Zrotation Xrotation Yrotation
                    JOINT lMid2
                    {
                      OFFSET 3.9766 -1.54 2.3863
                      CHANNELS 6 Xposition Yposition Zposition Zrotation Xrotation Yrotation
                      JOINT lMid2_End
                      {
                        OFFSET 1.4042 -1.926 1.125
                        CHANNELS 6 Xposition Yposition Zposition Zrotation Xrotation Yrotation
                        End Site
                        {
                          OFFSET 0.014 -0.0193 0.0113
                        }
                      }
                    }
                  }
                }
                JOINT lCarpal2
                {
                  OFFSET 2.0956 0.66 -0.3894
                  CHANNELS 6 Xposition Yposition Zposition Zrotation Xrotation Yrotation
                  JOINT lRing1
                  {
                    OFFSET 5.0395 -0.09 2.4971
                    CHANNELS 6 Xposition Yposition Zposition Zrotation Xrotation Yrotation
                    JOINT lRing2
                    {
                      OFFSET 3.7921 -1.552 1.4806
                      CHANNELS 6 Xposition Yposition Zposition Zrotation Xrotation Yrotation
                      JOINT lRing2_End
                      {
                        OFFSET 1.4655 -1.808 0.9609
                        CHANNELS 6 Xposition Yposition Zposition Zrotation Xrotation Yrotation
                        End Site
                        {
                          OFFSET 0.0147 -0.0181 0.0096
                        }
                      }
                    }
                  }
                  JOINT lPinky1
                  {
                    OFFSET 4.9141 -1.269 0.3591
                    CHANNELS 6 Xposition Yposition Zposition Zrotation Xrotation Yrotation
                    JOINT lPinky2
                    {
                      OFFSET 3.1477 -1.685 0.8462
                      CHANNELS 6 Xposition Yposition Zposition Zrotation Xrotation Yrotation
                      JOINT lPinky2_End
                      {
                        OFFSET 0.8055 -1.585 0.7955
                        CHANNELS 6 Xposition Yposition Zposition Zrotation Xrotation Yrotation
                        End Site
                        {
                          OFFSET 0.0081 -0.0158 0.008
                        }
                      }
                    }
                  }
                }
              }
            }
          }
        }
        JOINT rCollar
        {
          OFFSET -1.7069 20.075 5.0056
          CHANNELS 6 Xposition Yposition Zposition Zrotation Xrotation Yrotation
          JOINT rShldr
          {
            OFFSET -13.6458 -0.047 -4.849
            CHANNELS 6 Xposition Yposition Zposition Zrotation Xrotation Yrotation
            JOINT rForeArm
            {
              OFFSET -28.3255 -0.9759 2.2888
              CHANNELS 6 Xposition Yposition Zposition Zrotation Xrotation Yrotation
              JOINT rHand
              {
                OFFSET -22.1583 -0.53 10.8316
                CHANNELS 6 Xposition Yposition Zposition Zrotation Xrotation Yrotation
                JOINT rThumb1
                {
                  OFFSET -0.786 0.112 2.5817
                  CHANNELS 6 Xposition Yposition Zposition Zrotation Xrotation Yrotation
                  JOINT rThumb2
                  {
                    OFFSET -0.3601 -0.878 4.2331
                    CHANNELS 6 Xposition Yposition Zposition Zrotation Xrotation Yrotation
                    JOINT rThumb2_End
                    {
                      OFFSET -1.8127 -1.216 2.2227
                      CHANNELS 6 Xposition Yposition Zposition Zrotation Xrotation Yrotation
                      End Site
                      {
                        OFFSET -0.0181 -0.0122 0.0222
                      }
                    }
                  }
                }
                JOINT rCarpal1
                {
                  OFFSET -0.9571 1.114 1.7695
                  CHANNELS 6 Xposition Yposition Zposition Zrotation Xrotation Yrotation
                  JOINT rIndex1
                  {
                    OFFSET -4.1246 0.487 4.1451
                    CHANNELS 6 Xposition Yposition Zposition Zrotation Xrotation Yrotation
                    JOINT rIndex2
                    {
                      OFFSET -3.4052 -1.454 2.7682
                      CHANNELS 6 Xposition Yposition Zposition Zrotation Xrotation Yrotation
                      JOINT rIndex2_End
                      {
                        OFFSET -1.4531 -1.795 1.2713
                        CHANNELS 6 Xposition Yposition Zposition Zrotation Xrotation Yrotation
                        End Site
                        {
                          OFFSET -0.0145 -0.018 0.0127
                        }
                      }
                    }
                  }
                  JOINT rMid1
                  {
                    OFFSET -5.6954 0.21 2.1184
                    CHANNELS 6 Xposition Yposition Zposition Zrotation Xrotation Yrotation
                    JOINT rMid2
                    {
                      OFFSET -3.9766 -1.54 2.3863
                      CHANNELS 6 Xposition Yposition Zposition Zrotation Xrotation Yrotation
                      JOINT rMid2_End
                      {
                        OFFSET -1.4042 -1.926 1.125
                        CHANNELS 6 Xposition Yposition Zposition Zrotation Xrotation Yrotation
                        End Site
                        {
                          OFFSET -0.014 -0.0193 0.0113
                        }
                      }
                    }
                  }
                }
                JOINT rCarpal2
                {
                  OFFSET -2.0956 0.66 -0.3894
                  CHANNELS 6 Xposition Yposition Zposition Zrotation Xrotation Yrotation
                  JOINT rRing1
                  {
                    OFFSET -5.0395 -0.09 2.4971
                    CHANNELS 6 Xposition Yposition Zposition Zrotation Xrotation Yrotation
                    JOINT rRing2
                    {
                      OFFSET -3.7921 -1.552 1.4806
                      CHANNELS 6 Xposition Yposition Zposition Zrotation Xrotation Yrotation
                      JOINT rRing2_End
                      {
                        OFFSET -1.4655 -1.808 0.9609
                        CHANNELS 6 Xposition Yposition Zposition Zrotation Xrotation Yrotation
                        End Site
                        {
                          OFFSET -0.0147 -0.0181 0.0096
                        }
                      }
                    }
                  }
                  JOINT rPinky1
                  {
                    OFFSET -4.9141 -1.269 0.3592
                    CHANNELS 6 Xposition Yposition Zposition Zrotation Xrotation Yrotation
                    JOINT rPinky2
                    {
                      OFFSET -3.1477 -1.685 0.8462
                      CHANNELS 6 Xposition Yposition Zposition Zrotation Xrotation Yrotation
                      JOINT rPinky2_End
                      {
                        OFFSET -0.8055 -1.585 0.7955
                        CHANNELS 6 Xposition Yposition Zposition Zrotation Xrotation Yrotation
                        End Site
                        {
                          OFFSET -0.0081 -0.0158 0.008
                        }
                      }
                    }
                  }
                }
              }
            }
          }
        }
      }
    }
  }
  JOINT lThigh
  {
    OFFSET 8.367 -8.2066 0.5982
    CHANNELS 6 Xposition Yposition Zposition Zrotation Xrotation Yrotation
    JOINT lShin
    {
      OFFSET 2.1923 -43.463 -0.4932
      CHANNELS 6 Xposition Yposition Zposition Zrotation Xrotation Yrotation
      JOINT lFoot
      {
        OFFSET 0.7333 -45.8593 -2.6451
        CHANNELS 6 Xposition Yposition Zposition Zrotation Xrotation Yrotation
        End Site
        {
          OFFSET 2.6618 -4.2699 12.3931
        }
      }
    }
  }
  JOINT rThigh
  {
    OFFSET -8.367 -8.2066 0.5982
    CHANNELS 6 Xposition Yposition Zposition Zrotation Xrotation Yrotation
    JOINT rShin
    {
      OFFSET -2.1923 -43.463 -0.4931
      CHANNELS 6 Xposition Yposition Zposition Zrotation Xrotation Yrotation
      JOINT rFoot
      {
        OFFSET -0.7333 -45.8593 -2.6451
        CHANNELS 6 Xposition Yposition Zposition Zrotation Xrotation Yrotation
        End Site
        {
          OFFSET -2.6618 -4.2699 12.3931
        }
      }
    }
  }
}
MOTION
Frames:	4
Frame Time:	0.0333333
43.4713 30.594 29.1892 -179.999 58.9984 12.9916 0 -1.186 -1.5018 -0.0579711 7.86186 -2.86083 0 9.964 0.2134 0.2888 15.7166 -5.79664 0 13.134 -3.2573 0.2888 15.7166 -5.79664 0 20.686 -1.6905 -19.0665 13.2565 4.53189 0 7.238 -0.1237 -1.42605 -1.47661 10.0577 1.7069 20.075 5.0056 -4.28046 1.4754 1.75592 13.6458 -0.047 -4.849 -51.9669 55.0757 6.55908 28.3255 -0.9759 2.2888 17.5298 32.3551 -8.71834 22.1583 -0.53 10.8316 0.99473 -6.25669 4.5486 0.786 0.112 2.5817 7.69913e-007 3.66769e-007 -2.30743e-008 0.3601 -0.878 4.2331 -1.83385e-007 3.84956e-007 -1.66701e-008 1.8127 -1.216 2.2227 -5.619e-008 6.85935e-007 8.93642e-006 0.9571 1.114 1.7695 -7.95139e-016 -7.95139e-016 -9.54166e-015 4.1246 0.487 4.1451 7.69913e-007 3.66769e-007 -2.30743e-008 3.4052 -1.454 2.7682 -1.83385e-007 3.84956e-007 -1.66701e-008 1.4531 -1.795 1.2713 -5.619e-008 6.85935e-007 8.93642e-006 5.6954 0.21 2.1184 7.69913e-007 3.66769e-007 -2.30743e-008 3.9766 -1.54 2.3863 -1.83385e-007 3.84956e-007 -1.66701e-008 1.4042 -1.926 1.125 -5.619e-008 6.85935e-007 8.93642e-006 2.0956 0.66 -0.3894 -7.95139e-016 -7.95139e-016 -9.54166e-015 5.0395 -0.09 2.4971 7.69913e-007 3.66769e-007 -2.30743e-008 3.7921 -1.552 1.4806 -1.83385e-007 3.84956e-007 -1.66701e-008 1.4655 -1.808 0.9609 -5.619e-008 6.85935e-007 8.93642e-006 4.9141 -1.269 0.3591 7.69913e-007 3.66769e-007 -2.30743e-008 3.1477 -1.685 0.8462 -1.83385e-007 3.84956e-007 -1.66701e-008 0.8055 -1.585 0.7955 -5.619e-008 6.85935e-007 8.93642e-006 -1.7069 20.075 5.0056 19.3594 -0.559158 1.20403 -13.6458 -0.047 -4.849 36.7714 55.1114 -6.2676 -28.3255 -0.9759 2.2888 31.7607 -29.6528 135.427 -22.1583 -0.53 10.8316 47.1726 6.8501 -7.18856 -0.786 0.112 2.5817 1.9177e-009 -2.40325e-007 1.36871e-006 -0.3601 -0.878 4.2331 3.18055e-015 3.18055e-015 -3.18055e-015 -1.8127 -1.216 2.2227 1.63048e-006 4.81661e-007 -1.15866e-006 -0.9571 1.114 1.7695 7.95139e-016 -3.18055e-015 -0 -4.1246 0.487 4.1451 1.9177e-009 -2.40325e-007 1.36871e-006 -3.4052 -1.454 2.7682 7.95139e-016 3.18055e-015 -4.77083e-015 -1.4531 -1.795 1.2713 1.63048e-006 4.81661e-007 -1.15866e-006 -5.6954 0.21 2.1184 1.9177e-009 -2.40325e-007 1.36871e-006 -3.9766 -1.54 2.3863 7.95139e-016 3.18055e-015 -4.77083e-015 -1.4042 -1.926 1.125 1.63048e-006 4.81661e-007 -1.15866e-006 -2.0956 0.66 -0.3894 7.95139e-016 -3.18055e-015 -0 -5.0395 -0.09 2.4971 1.9177e-009 -2.40325e-007 1.36871e-006 -3.7921 -1.552 1.4806 7.95139e-016 3.18055e-015 -4.77083e-015 -1.4655 -1.808 0.9609 1.63048e-006 4.81661e-007 -1.15866e-006 -4.9141 -1.269 0.3592 1.9177e-009 -2.40325e-007 1.36871e-006 -3.1477 -1.685 0.8462 7.95139e-016 3.18055e-015 -4.77083e-015 -0.8055 -1.585 0.7955 1.63048e-006 4.81661e-007 -1.15866e-006 8.367 -8.2066 0.5982 71.7396 -83.0676 103.144 2.1923 -43.463 -0.4932 2.25049 37.9531 -41.679 0.7333 -45.8593 -2.6451 25.1576 0.0619116 6.39697 -8.367 -8.2066 0.5982 64.212 -73.495 45.5911 -2.1923 -43.463 -0.4931 -2.06046 35.3127 41.9385 -0.7333 -45.8593 -2.6451 -26.4422 0.94807 -7.14263 
43.4687 30.5929 29.2083 -179.999 58.9984 12.9916 -7.10543e-015 -1.186 -1.5018 -0.0713264 7.77558 -2.86206 -7.10543e-015 9.964 0.2134 0.257208 15.5448 -5.79554 -7.10543e-015 13.134 -3.2573 0.25721 15.5448 -5.79554 -7.10543e-015 20.686 -1.6905 -18.9711 13.2644 4.51 0 7.238 -0.1237 -1.42765 -1.21776 9.28158 1.7069 20.075 5.0056 -4.51468 1.71954 2.05997 13.6458 -0.047 -4.849 -51.8147 55.0757 6.53406 28.3255 -0.9759 2.2888 17.5298 32.3551 -8.71834 22.1583 -0.53 10.8316 1.01261 -5.94585 4.51051 0.786 0.112 2.5817 -7.95139e-016 -1.19271e-015 -3.18055e-015 0.3601 -0.878 4.2331 -0 -7.95139e-016 -0 1.8127 -1.216 2.2227 2.01208e-007 5.68474e-007 -2.81313e-008 0.9571 1.114 1.7695 -7.95139e-016 0 -9.54166e-015 4.1246 0.487 4.1451 1.59028e-015 -3.97569e-016 1.27222e-014 3.4052 -1.454 2.7682 2.64834e-031 -1.19271e-015 1.27222e-014 1.4531 -1.795 1.2713 2.01208e-007 5.68474e-007 -2.81313e-008 5.6954 0.21 2.1184 1.59028e-015 -3.97569e-016 1.27222e-014 3.9766 -1.54 2.3863 2.64834e-031 -1.19271e-015 1.27222e-014 1.4042 -1.926 1.125 2.01208e-007 5.68474e-007 -2.81313e-008 2.0956 0.66 -0.3894 -7.95139e-016 0 -9.54166e-015 5.0395 -0.09 2.4971 1.59028e-015 -3.97569e-016 1.27222e-014 3.7921 -1.552 1.4806 2.64834e-031 -1.19271e-015 1.27222e-014 1.4655 -1.808 0.9609 2.01208e-007 5.68474e-007 -2.81313e-008 4.9141 -1.269 0.3591 1.59028e-015 -3.97569e-016 1.27222e-014 3.1477 -1.685 0.8462 2.64834e-031 -1.19271e-015 1.27222e-014 0.8055 -1.585 0.7955 2.01208e-007 5.68474e-007 -2.81313e-008 -1.7069 20.075 5.0056 19.3594 -0.559157 1.20402 -13.6458 -0.047 -4.849 36.7714 55.1114 -6.26759 -28.3255 -0.9759 2.2888 31.8714 -29.5389 135.651 -22.1583 -0.53 10.8316 47.1726 6.85009 -7.18856 -0.786 0.112 2.5817 3.18055e-015 3.18055e-015 -1.59028e-015 -0.3601 -0.878 4.2331 1.63197e-006 2.36973e-007 2.1743e-007 -1.8127 -1.216 2.2227 -2.38542e-015 -6.36111e-015 -1.59028e-015 -0.9571 1.114 1.7695 -7.95139e-016 -3.18055e-015 -1.59028e-015 -4.1246 0.487 4.1451 4.77083e-015 -3.18055e-015 6.36111e-015 -3.4052 -1.454 2.7682 1.63197e-006 2.36973e-007 2.1743e-007 -1.4531 -1.795 1.2713 -5.29669e-031 -9.54166e-015 -3.18055e-015 -5.6954 0.21 2.1184 4.77083e-015 -3.18055e-015 6.36111e-015 -3.9766 -1.54 2.3863 1.63197e-006 2.36973e-007 2.1743e-007 -1.4042 -1.926 1.125 -5.29669e-031 -9.54166e-015 -3.18055e-015 -2.0956 0.66 -0.3894 -7.95139e-016 -3.18055e-015 -1.59028e-015 -5.0395 -0.09 2.4971 4.77083e-015 -3.18055e-015 6.36111e-015 -3.7921 -1.552 1.4806 1.63197e-006 2.36973e-007 2.1743e-007 -1.4655 -1.808 0.9609 -5.29669e-031 -9.54166e-015 -3.18055e-015 -4.9141 -1.269 0.3592 4.77083e-015 -3.18055e-015 6.36111e-015 -3.1477 -1.685 0.8462 1.63197e-006 2.36973e-007 2.1743e-007 -0.8055 -1.585 0.7955 -5.29669e-031 -9.54166e-015 -3.18055e-015 8.367 -8.2066 0.5982 70.0012 -82.9931 101.392 2.1923 -43.463 -0.4932 2.25093 37.9581 -41.6784 0.7333 -45.8593 -2.6451 25.16 0.0577173 6.39771 -8.367 -8.2066 0.5982 63.5922 -73.4051 44.946 -2.1923 -43.463 -0.4931 -2.05967 35.3032 41.9396 -0.7333 -45.8593 -2.6451 -26.4383 0.951062 -7.14223 
43.4662 30.5919 29.2274 -179.999 58.9984 12.9916 -7.10543e-015 -1.186 -1.5018 -0.0846557 7.6893 -2.86318 0 9.964 0.2134 0.225598 15.3731 -5.79421 0 13.134 -3.2573 0.225599 15.3731 -5.79421 7.10543e-015 20.686 -1.6905 -18.8763 13.2709 4.48821 0 7.238 -0.1237 -1.42572 -0.958934 8.50558 1.7069 20.075 5.0056 -4.7502 1.96242 2.36506 13.6458 -0.047 -4.849 -51.6626 55.0758 6.50905 28.3255 -0.9759 2.2888 17.5298 32.3551 -8.71831 22.1583 -0.53 10.8316 1.03068 -5.63503 4.47228 0.786 0.112 2.5817 -7.95139e-016 -7.95139e-016 -3.18055e-015 0.3601 -0.878 4.2331 -0 -1.19271e-015 -0 1.8127 -1.216 2.2227 1.59028e-015 -1.98785e-015 3.18055e-015 0.9571 1.114 1.7695 -7.95139e-016 3.97569e-016 -3.18055e-015 4.1246 0.487 4.1451 7.95139e-016 -1.98785e-015 6.36111e-015 3.4052 -1.454 2.7682 1.59028e-015 -1.19271e-015 3.18055e-015 1.4531 -1.795 1.2713 -1.59028e-015 -1.98785e-015 -3.18055e-015 5.6954 0.21 2.1184 7.95139e-016 -1.98785e-015 6.36111e-015 3.9766 -1.54 2.3863 1.59028e-015 -1.19271e-015 3.18055e-015 1.4042 -1.926 1.125 -1.59028e-015 -1.98785e-015 -3.18055e-015 2.0956 0.66 -0.3894 -7.95139e-016 3.97569e-016 -3.18055e-015 5.0395 -0.09 2.4971 7.95139e-016 -1.98785e-015 6.36111e-015 3.7921 -1.552 1.4806 1.59028e-015 -1.19271e-015 3.18055e-015 1.4655 -1.808 0.9609 -1.59028e-015 -1.98785e-015 -3.18055e-015 4.9141 -1.269 0.3591 7.95139e-016 -1.98785e-015 6.36111e-015 3.1477 -1.685 0.8462 1.59028e-015 -1.19271e-015 3.18055e-015 0.8055 -1.585 0.7955 -1.59028e-015 -1.98785e-015 -3.18055e-015 -1.7069 20.075 5.0056 19.3594 -0.559172 1.20403 -13.6458 -0.047 -4.849 36.7714 55.1114 -6.26759 -28.3255 -0.9759 2.2888 31.9815 -29.4247 135.874 -22.1583 -0.53 10.8316 47.1726 6.8501 -7.18856 -0.786 0.112 2.5817 3.18055e-015 0 -1.59028e-015 -0.3601 -0.878 4.2331 3.63426e-006 -1.91178e-006 -8.62596e-007 -1.8127 -1.216 2.2227 1.85631e-006 6.18944e-007 -1.4067e-006 -0.9571 1.114 1.7695 3.18055e-015 0 -3.18055e-015 -4.1246 0.487 4.1451 -8.74653e-015 -6.36111e-015 3.18055e-015 -3.4052 -1.454 2.7682 3.63426e-006 -1.91178e-006 -8.62596e-007 -1.4531 -1.795 1.2713 1.85631e-006 6.18944e-007 -1.4067e-006 -5.6954 0.21 2.1184 -8.74653e-015 -6.36111e-015 3.18055e-015 -3.9766 -1.54 2.3863 3.63426e-006 -1.91178e-006 -8.62596e-007 -1.4042 -1.926 1.125 1.85631e-006 6.18944e-007 -1.4067e-006 -2.0956 0.66 -0.3894 3.18055e-015 0 -3.18055e-015 -5.0395 -0.09 2.4971 -8.74653e-015 -6.36111e-015 3.18055e-015 -3.7921 -1.552 1.4806 3.63426e-006 -1.91178e-006 -8.62596e-007 -1.4655 -1.808 0.9609 1.85631e-006 6.18944e-007 -1.4067e-006 -4.9141 -1.269 0.3592 -8.74653e-015 -6.36111e-015 3.18055e-015 -3.1477 -1.685 0.8462 3.63426e-006 -1.91178e-006 -8.62596e-007 -0.8055 -1.585 0.7955 1.85631e-006 6.18944e-007 -1.4067e-006 8.367 -8.2066 0.5982 68.3007 -82.9122 99.6786 2.1923 -43.463 -0.4932 2.25136 37.9631 -41.6778 0.7333 -45.8593 -2.6451 25.1623 0.0535231 6.39845 -8.367 -8.2066 0.5982 62.9792 -73.3132 44.3078 -2.1923 -43.463 -0.4931 -2.05886 35.2938 41.9408 -0.7333 -45.8593 -2.6451 -26.4345 0.954044 -7.14185 
43.4636 30.591 29.2464 -179.999 58.9984 12.9916 -7.10543e-015 -1.186 -1.5018 -0.09801 7.60309 -2.86414 -1.42109e-014 9.964 0.2134 0.193975 15.2014 -5.79265 -1.42109e-014 13.134 -3.2573 0.193975 15.2014 -5.79265 -7.10543e-015 20.686 -1.6905 -18.7808 13.2782 4.4663 -1.42109e-014 7.238 -0.1237 -1.4203 -0.70019 7.72969 1.7069 20.075 5.0056 -4.98703 2.20402 2.67115 13.6458 -0.047 -4.849 -51.5105 55.0757 6.48404 28.3255 -0.9759 2.2888 17.5298 32.3551 -8.71835 22.1583 -0.53 10.8316 1.04895 -5.32424 4.434 0.786 0.112 2.5817 -1.43579e-007 2.26363e-007 2.81297e-006 0.3601 -0.878 4.2331 1.43579e-007 -2.26363e-007 -2.81297e-006 1.8127 -1.216 2.2227 -1.43579e-007 2.26363e-007 2.81297e-006 0.9571 1.114 1.7695 -8.82781e-032 -7.95139e-016 -6.36111e-015 4.1246 0.487 4.1451 -1.43579e-007 2.26363e-007 2.81297e-006 3.4052 -1.454 2.7682 1.43579e-007 -2.26363e-007 -2.81297e-006 1.4531 -1.795 1.2713 -1.43579e-007 2.26363e-007 2.81297e-006 5.6954 0.21 2.1184 -1.43579e-007 2.26363e-007 2.81297e-006 3.9766 -1.54 2.3863 1.43579e-007 -2.26363e-007 -2.81297e-006 1.4042 -1.926 1.125 -1.43579e-007 2.26363e-007 2.81297e-006 2.0956 0.66 -0.3894 -8.82781e-032 -7.95139e-016 -6.36111e-015 5.0395 -0.09 2.4971 -1.43579e-007 2.26363e-007 2.81297e-006 3.7921 -1.552 1.4806 1.43579e-007 -2.26363e-007 -2.81297e-006 1.4655 -1.808 0.9609 -1.43579e-007 2.26363e-007 2.81297e-006 4.9141 -1.269 0.3591 -1.43579e-007 2.26363e-007 2.81297e-006 3.1477 -1.685 0.8462 1.43579e-007 -2.26363e-007 -2.81297e-006 0.8055 -1.585 0.7955 -1.43579e-007 2.26363e-007 2.81297e-006 -1.7069 20.075 5.0056 19.3594 -0.559186 1.20404 -13.6458 -0.047 -4.849 36.7714 55.1114 -6.26759 -28.3255 -0.9759 2.2888 32.0909 -29.3101 136.096 -22.1583 -0.53 10.8316 47.1726 6.8501 -7.18857 -0.786 0.112 2.5817 -1.63101e-006 -2.28248e-007 -2.32174e-007 -0.3601 -0.878 4.2331 -1.63101e-006 -2.28248e-007 -2.32174e-007 -1.8127 -1.216 2.2227 -1.86318e-006 -6.14931e-007 1.39884e-006 -0.9571 1.114 1.7695 7.95139e-016 3.18055e-015 -1.59028e-015 -4.1246 0.487 4.1451 -1.63101e-006 -2.28248e-007 -2.32174e-007 -3.4052 -1.454 2.7682 -1.63101e-006 -2.28248e-007 -2.32174e-007 -1.4531 -1.795 1.2713 -1.86318e-006 -6.14931e-007 1.39884e-006 -5.6954 0.21 2.1184 -1.63101e-006 -2.28248e-007 -2.32174e-007 -3.9766 -1.54 2.3863 -1.63101e-006 -2.28248e-007 -2.32174e-007 -1.4042 -1.926 1.125 -1.86318e-006 -6.14931e-007 1.39884e-006 -2.0956 0.66 -0.3894 7.95139e-016 3.18055e-015 -1.59028e-015 -5.0395 -0.09 2.4971 -1.63101e-006 -2.28248e-007 -2.32174e-007 -3.7921 -1.552 1.4806 -1.63101e-006 -2.28248e-007 -2.32174e-007 -1.4655 -1.808 0.9609 -1.86318e-006 -6.14931e-007 1.39884e-006 -4.9141 -1.269 0.3592 -1.63101e-006 -2.28248e-007 -2.32174e-007 -3.1477 -1.685 0.8462 -1.63101e-006 -2.28248e-007 -2.32174e-007 -0.8055 -1.585 0.7955 -1.86318e-006 -6.14931e-007 1.39884e-006 8.367 -8.2066 0.5982 66.6396 -82.8252 98.0044 2.1923 -43.463 -0.4932 2.25179 37.9678 -41.6773 0.7333 -45.8593 -2.6451 25.1646 0.0494131 6.39917 -8.367 -8.2066 0.5982 62.3733 -73.2195 43.6766 -2.1923 -43.463 -0.4931 -2.05803 35.2844 41.9419 -0.7333 -45.8593 -2.6451 -26.4306 0.957078 -7.14146 
